<?xml version="1.0" encoding="utf-8"?>
<!-- Generator: Adobe Illustrator 24.3.0, SVG Export Plug-In . SVG Version: 6.00 Build 0)  -->
<svg version="1.1" id="Layer_1" xmlns="http://www.w3.org/2000/svg" xmlns:xlink="http://www.w3.org/1999/xlink" x="0px" y="0px"
	 width="24" height="24" viewBox="0 0 526.1 526.1" style="enable-background:new 0 0 526.1 526.1;" xml:space="preserve">
<style type="text/css">
	.st0{fill:#099250;stroke:#099250;stroke-width:12;stroke-miterlimit:10;}
</style>
<path class="st0" d="M131.8,6.6c2,0,4,0,6,0c5.4,0,10.8,0,16.2,0c4.5,0,9.1,0,13.6,0c10.7,0,21.4,0,32.1,0c11,0,22,0,33,0
	c9.5,0,18.9,0,28.4,0c5.6,0,11.3,0,16.9,0c5.3,0,10.6,0,15.9,0c1.9,0,3.9,0,5.8,0c21.2-0.1,35,5,50.5,19.9c1.9,1.8,3.8,3.6,5.8,5.4
	c6.2,5.8,12.3,11.5,18.3,17.6c1.8,1.7,3.6,3.4,5.5,5c3.4,2.9,6.6,6,9.7,9.2c3.7,3.7,7.5,7.3,11.5,10.7c3.3,3,6.4,6.2,9.6,9.4
	c2.1,2,4.2,4,6.4,5.8c3.9,3.3,7.4,6.9,11,10.5c2.6,2.7,5.3,5.2,8.2,7.6c10.9,9.5,19.4,20.9,21.9,35.4c0.3,4.5,0.3,9,0.3,13.5
	c0,1.4,0,2.7,0,4.1c0,3.7,0,7.5,0,11.2c0,4,0,8.1,0,12.1c0,7.9,0,15.8,0,23.8c0,6.4,0,12.9,0,19.3c0,18.3,0,36.5,0,54.8c0,1,0,2,0,3
	c0,1,0,2,0,3c0,16,0,31.9,0,47.9c0,16.4,0,32.8,0,49.2c0,9.2,0,18.4,0,27.6c0,7.8,0,15.7,0,23.5c0,4,0,8,0,12c0,3.7,0,7.3,0,11
	c0,1.9,0,3.9,0,5.8c-0.1,14.8-5.5,28.1-15.6,39c-11.8,11.1-25.5,15.7-41.5,15.6c-1.2,0-2.5,0-3.7,0c-3.4,0-6.8,0-10.2,0
	c-3.7,0-7.3,0-11,0c-7.2,0-14.4,0-21.6,0c-5.8,0-11.7,0-17.5,0c-0.8,0-1.7,0-2.5,0c-1.7,0-3.4,0-5.1,0c-15.9,0-31.7,0-47.6,0
	c-14.5,0-29,0-43.5,0c-14.9,0-29.8,0-44.7,0c-8.4,0-16.7,0-25.1,0c-7.1,0-14.2,0-21.3,0c-3.6,0-7.3,0-10.9,0c-3.9,0-7.9,0-11.8,0
	c-1.1,0-2.3,0-3.4,0c-14.4-0.1-27.6-5.8-38.2-15.6c-12.6-13.5-15.7-28.3-15.6-46.2c0-1.7,0-3.5,0-5.2c0-4.8,0-9.6,0-14.4
	c0-5.2,0-10.3,0-15.5c0-10.1,0-20.2,0-30.4c0-8.2,0-16.5,0-24.7c0-1.2,0-2.3,0-3.6c0-2.4,0-4.8,0-7.1c0-22.3,0-44.6,0-67
	c0-20.4,0-40.8,0-61.2c0-21,0-41.9,0-62.9c0-11.8,0-23.5,0-35.3c0-10,0-20,0-30.1c0-5.1,0-10.2,0-15.3c0-4.7,0-9.4,0-14
	c0-1.7,0-3.4,0-5.1c-0.1-16.7,3.9-31.1,15.6-43.7C97.5,8.8,112.9,6.6,131.8,6.6z M103.7,46.5c-4.9,7.4-5.8,13.9-5.8,22.7
	c0,0.7,0,1.4,0,2.1c0,2.3,0,4.6,0,6.9c0,1.7,0,3.3,0,5c0,4.6,0,9.1,0,13.7c0,4.9,0,9.8,0,14.7c0,9.6,0,19.2,0,28.8
	c0,7.8,0,15.6,0,23.4c0,22.2,0,44.3,0,66.5c0,1.2,0,2.4,0,3.6c0,1.2,0,2.4,0,3.6c0,19.4,0,38.8,0,58.2c0,19.9,0,39.8,0,59.7
	c0,11.2,0,22.4,0,33.5c0,9.5,0,19,0,28.5c0,4.9,0,9.7,0,14.6c0,4.4,0,8.9,0,13.3c0,1.6,0,3.2,0,4.8c0,11.4-0.1,21.6,7.3,30.9
	c8.7,8.2,18.2,8.2,29.4,8.1c1.1,0,2.3,0,3.5,0c3.8,0,7.7,0,11.5,0c2.7,0,5.5,0,8.2,0c6.7,0,13.4,0,20,0c5.4,0,10.9,0,16.3,0
	c15.4,0,30.8,0,46.2,0c0.8,0,1.7,0,2.5,0c0.8,0,1.7,0,2.5,0c13.5,0,26.9,0,40.4,0c13.8,0,27.7,0,41.5,0c7.8,0,15.5,0,23.3,0
	c6.6,0,13.2,0,19.8,0c3.4,0,6.7,0,10.1,0c3.7,0,7.3,0,11,0c1.1,0,2.1,0,3.2,0c10.1,0,18.8-1.2,26.5-8.3c7.3-9.3,7.1-18.1,7.1-29.5
	c0-1.3,0-2.5,0-3.8c0-3.5,0-7,0-10.5c0-3.8,0-7.5,0-11.3c0-6.5,0-13,0-19.5c0-9.4,0-18.8,0-28.3c0-15.3,0-30.6,0-45.8
	c0-14.8,0-29.7,0-44.5c0-0.9,0-1.8,0-2.8c0-4.6,0-9.2,0-13.8c0-38.1,0-76.2-0.1-114.2c-1.2,0-2.4,0-3.7,0c-11.5-0.1-23-0.1-34.6-0.2
	c-5.9,0-11.8-0.1-17.8-0.1c-5.7,0-11.4-0.1-17.2-0.1c-2.2,0-4.4,0-6.5,0c-3.1,0-6.1,0-9.2-0.1c-0.9,0-1.8,0-2.7,0
	c-10.2-0.2-18.1-3.3-25.4-10.4c-6.2-7.7-8.3-14.6-8.3-24.3c0-1.4,0-1.4,0-2.8c0-3,0-6-0.1-9.1c0-2.1,0-4.2-0.1-6.3
	c-0.1-5.5-0.1-11-0.1-16.5c0-5.6-0.1-11.3-0.1-16.9c-0.1-11-0.2-22.1-0.3-33.1c-23.2,0-46.4-0.1-69.5-0.1c-10.8,0-21.5,0-32.3,0
	c-9.4,0-18.8,0-28.2,0c-5,0-9.9,0-14.9,0c-4.7,0-9.4,0-14,0c-1.7,0-3.4,0-5.1,0C119.2,36.7,119.2,36.7,103.7,46.5z M332,53
	c0,8.9-0.1,17.9-0.1,26.8c0,4.1,0,8.3,0,12.4c0,4,0,8,0,12c0,1.5,0,3.1,0,4.6c0,2.1,0,4.3,0,6.4c0,1.2,0,2.4,0,3.7
	c0.2,3,0.5,4.7,2.2,7.1c3.5,1.2,6.3,1.1,10,1.1c0.7,0,1.4,0,2.2,0c2.4,0,4.7,0,7.1,0c1.6,0,3.3,0,4.9,0c4.3,0,8.6,0,12.9,0
	c4.4,0,8.8,0,13.2,0c8.6,0,17.2,0,25.8,0c-3.1-3.7-6.2-7.4-9.8-10.7c-0.7-0.6-1.3-1.2-2-1.9c-0.7-0.6-1.4-1.3-2.1-1.9
	c-8.6-8-8.6-8-12.6-12.1c-2.4-2.4-4.8-4.7-7.4-6.9C373,90.9,370,88,367,85c-2.9-2.9-5.8-5.8-8.9-8.4c-3.4-2.9-6.5-5.9-9.6-9.1
	C343.4,62.3,338.2,57.1,332,53z"/>
</svg>
