<?xml version="1.0" encoding="utf-8"?>
<!-- Generator: Adobe Illustrator 24.3.0, SVG Export Plug-In . SVG Version: 6.00 Build 0)  -->
<svg version="1.1" id="Layer_1" xmlns="http://www.w3.org/2000/svg" xmlns:xlink="http://www.w3.org/1999/xlink" x="0px" y="0px" width="25px" hight="30px"
	 viewBox="0 0 30 30" fill="#667085"  style="enable-background:new 0 0 30 30;" xml:space="preserve">
<path d="M15,19.1c-0.2,0-0.3,0-0.5-0.1s-0.3-0.1-0.4-0.3L8.4,13C8.1,12.8,8,12.5,8,12.1s0.1-0.6,0.3-0.9s0.5-0.3,0.9-0.3
	s0.6,0.1,0.9,0.3l4.9,4.9l4.9-4.9c0.2-0.2,0.5-0.3,0.9-0.3s0.6,0.1,0.9,0.3s0.3,0.5,0.3,0.9s-0.1,0.6-0.3,0.9l-5.8,5.8
	c-0.1,0.1-0.3,0.2-0.4,0.3S15.2,19.1,15,19.1z"/>
</svg>
