<?xml version="1.0" encoding="utf-8"?>
<!-- Generator: Adobe Illustrator 24.3.0, SVG Export Plug-In . SVG Version: 6.00 Build 0)  -->
<svg version="1.1" id="Layer_1" xmlns="http://www.w3.org/2000/svg" xmlns:xlink="http://www.w3.org/1999/xlink" x="0px" y="0px" width="25px" hight="30px"
	 viewBox="0 0 30 30" fill="#667085" style="enable-background:new 0 0 30 30;" xml:space="preserve">
<path d="M15,13.9l-4.9,4.9c-0.2,0.2-0.5,0.3-0.9,0.3S8.6,19,8.4,18.8S8,18.2,8,17.9s0.1-0.6,0.3-0.9l5.8-5.8
	c0.1-0.1,0.3-0.2,0.4-0.3s0.3-0.1,0.5-0.1s0.3,0,0.5,0.1s0.3,0.1,0.4,0.3l5.8,5.8c0.2,0.2,0.3,0.5,0.3,0.9s-0.1,0.6-0.3,0.9
	s-0.5,0.3-0.9,0.3s-0.6-0.1-0.9-0.3L15,13.9z"/>
</svg>
