<?xml version="1.0" encoding="utf-8"?>
<!-- Generator: Adobe Illustrator 24.3.0, SVG Export Plug-In . SVG Version: 6.00 Build 0)  -->
<svg version="1.1" id="Layer_1" xmlns="http://www.w3.org/2000/svg" xmlns:xlink="http://www.w3.org/1999/xlink" x="0px" y="0px"
	 width="25" height="25" viewBox="0 0 460 460" style="enable-background:new 0 0 460 460;" xml:space="preserve">
<style type="text/css">
	.st0{fill:#099250;stroke:#099250;stroke-width:5;stroke-miterlimit:10;}
</style>
<path class="st0" d="M271,25c0.9,0.2,1.8,0.4,2.7,0.6c27.1,6.1,53.8,16.8,76.3,33.4c1,0.8,2.1,1.5,3.2,2.3
	c9.6,7.2,18.3,15.2,26.8,23.7c0.9,0.9,0.9,0.9,1.9,1.7c6.5,6.2,11.8,13.1,17.1,20.3c0.4,0.6,0.8,1.1,1.3,1.7
	c15.3,21.1,26,45.3,32.6,70.4c0.2,0.7,0.4,1.4,0.6,2.1c3.9,16,5.2,32.1,5.1,48.5c0,0.9,0,1.8,0,2.8c-0.1,14.5-1.1,28.3-4.4,42.5
	c-0.2,0.8-0.4,1.6-0.6,2.5c-5.8,25.8-16.7,51.3-32.4,72.5c-0.8,1-1.5,2.1-2.3,3.2c-7.2,9.6-15.2,18.3-23.7,26.8
	c-0.6,0.6-1.2,1.2-1.7,1.9c-6.2,6.5-13.1,11.8-20.3,17.1c-0.6,0.4-1.1,0.8-1.7,1.3C327.5,417.6,299.8,429,271,435
	c-0.7,0.2-1.5,0.3-2.3,0.5c-24.9,5.2-54.9,5.1-79.7-0.5c-1.4-0.3-1.4-0.3-2.7-0.6c-27.1-6.1-53.8-16.8-76.3-33.4
	c-1-0.8-2.1-1.5-3.2-2.3c-9.6-7.2-18.3-15.2-26.8-23.7c-0.6-0.6-1.2-1.2-1.9-1.7c-6.5-6.2-11.8-13.1-17.1-20.3
	c-0.4-0.6-0.8-1.1-1.3-1.7c-15.3-21.1-26-45.3-32.6-70.4c-0.3-1.1-0.3-1.1-0.6-2.1c-3.8-16-5.2-32-5.1-48.4c0-0.9,0-1.8,0-2.8
	C21.9,170.9,45.1,119.8,85,80c0.9-0.9,0.9-0.9,1.7-1.9C92.9,71.7,99.8,66.3,107,61c0.6-0.4,1.1-0.8,1.7-1.3
	C132.5,42.4,160.2,31,189,25c1.1-0.2,1.1-0.2,2.3-0.5C216.1,19.3,246.2,19.4,271,25z M119,94c1.5,3.4,3.4,5.6,5.9,8.2
	c0.8,0.8,1.6,1.6,2.4,2.5c0.9,0.9,1.7,1.8,2.6,2.7c0.9,0.9,1.8,1.8,2.7,2.7c1.9,1.9,3.8,3.8,5.7,5.7c2.4,2.4,4.9,4.9,7.3,7.4
	c2.3,2.4,4.6,4.7,7,7c0.9,0.9,1.7,1.8,2.6,2.7c0.8,0.8,1.6,1.6,2.5,2.4c0.7,0.7,1.4,1.4,2.2,2.2c1.9,1.6,1.9,1.6,4.1,1.2
	c2.4-1,4.5-2.4,6.6-3.8c9.2-6,18.8-9.8,29.3-13.1c1.2-0.4,2.3-0.7,3.5-1.1c18.7-4.7,41.1-3.8,59.5,2.1c0.7,0.2,1.4,0.4,2,0.6
	c9.4,3,17.6,7.2,25.8,12.5c3.4,2.1,3.4,2.1,7.1,2.9c2.3-1.5,2.3-1.5,4.4-3.8c0.9-0.9,1.7-1.7,2.6-2.6c0.9-0.9,1.8-1.9,2.8-2.9
	c1-1,1.9-1.9,2.9-2.9c2.5-2.5,5-5.1,7.5-7.7c2.6-2.6,5.1-5.2,7.7-7.8c5-5.1,10.1-10.2,15.1-15.3c-2-4.5-5.2-6.5-9.1-9.2
	c-0.7-0.5-1.4-1-2.2-1.5C264.5,42.1,180.4,44.4,119,94z M94,119c-23.8,25.9-39,65.9-39.2,101c0,0.7,0,1.5,0,2.2
	c-0.3,22.6-0.3,22.6,3.2,44.8c0.2,0.8,0.4,1.6,0.6,2.5C65.2,296.1,77,319.5,94,341c3.4-1.5,5.6-3.4,8.2-5.9c0.8-0.8,1.6-1.6,2.5-2.4
	c0.9-0.9,1.8-1.7,2.7-2.6c0.9-0.9,1.8-1.8,2.7-2.7c1.9-1.9,3.8-3.8,5.7-5.7c2.4-2.4,4.9-4.9,7.4-7.3c2.4-2.3,4.7-4.6,7-7
	c0.9-0.9,1.8-1.7,2.7-2.6c0.8-0.8,1.6-1.6,2.4-2.5c0.7-0.7,1.4-1.4,2.2-2.2c1.6-1.9,1.6-1.9,1.2-4.1c-1-2.4-2.4-4.5-3.8-6.6
	c-6-9.2-9.8-18.8-13.1-29.3c-0.4-1.2-0.7-2.3-1.1-3.5c-4.7-18.7-3.8-41.1,2.1-59.5c0.2-0.7,0.4-1.4,0.6-2c3-9.4,7.2-17.6,12.5-25.8
	c2.1-3.4,2.1-3.4,2.9-7.1c-1.5-2.3-1.5-2.3-3.8-4.4c-0.9-0.9-1.7-1.7-2.6-2.6c-0.9-0.9-1.9-1.8-2.8-2.8c-1-1-1.9-1.9-2.9-2.9
	c-2-2-4-4-6.1-6c-2.6-2.6-5.2-5.1-7.8-7.7c-2-2-4-4-6-5.9c-1.4-1.4-2.8-2.8-4.3-4.2c-0.9-0.8-1.7-1.7-2.6-2.6
	c-0.8-0.8-1.5-1.5-2.3-2.3C96.2,118.8,96.2,118.8,94,119z M359.8,122.9c-0.9,0.8-1.7,1.7-2.6,2.6c-0.9,0.9-1.9,1.9-2.8,2.8
	c-1,1-1.9,1.9-2.9,2.9c-2,2-4,4-6,6c-2.6,2.6-5.2,5.1-7.8,7.7c-2,2-4,3.9-6,5.9c-1.4,1.4-2.8,2.8-4.3,4.2c-0.9,0.9-1.7,1.7-2.6,2.6
	c-0.8,0.8-1.5,1.5-2.3,2.3c-1.7,2-1.7,2-1.4,4.2c1,2.4,2.4,4.5,3.8,6.6c6,9.2,9.8,18.8,13.1,29.3c0.4,1.2,0.7,2.3,1.1,3.5
	c4.7,18.7,3.8,41.1-2.1,59.5c-0.2,0.7-0.4,1.4-0.6,2c-3,9.4-7.2,17.6-12.5,25.8c-2.1,3.4-2.1,3.4-2.9,7.1c1.5,2.3,1.5,2.3,3.8,4.4
	c0.9,0.9,1.7,1.7,2.6,2.6c0.9,0.9,1.9,1.8,2.9,2.8c1,1,1.9,1.9,2.9,2.9c2.5,2.5,5.1,5,7.7,7.5c2.6,2.6,5.2,5.1,7.8,7.7
	c5.1,5,10.2,10.1,15.3,15.1c4.5-2,6.5-5.2,9.2-9.1c0.5-0.7,1-1.4,1.5-2.2c12.9-19.4,21.9-40,27.4-62.7c0.2-0.7,0.4-1.4,0.5-2.2
	c5.2-22.1,4.9-49.8-0.5-71.8c-0.2-0.8-0.4-1.6-0.6-2.5c-6.4-26-17.8-51.1-35.4-71.5C362.9,119,362,120.8,359.8,122.9z M172,175
	c-16.2,16.8-21.6,38.2-21.3,60.9c0.5,16.3,7.6,32.7,18.3,45.1c0.5,0.6,1,1.3,1.5,1.9c13.2,16.3,33.4,24.6,53.8,26.9
	c21.7,1.3,42.8-6.2,59.1-20.4c15-13.7,24.9-32.6,25.9-53c0.6-21.2-4.2-40.9-18.3-57.4c-0.5-0.6-1-1.3-1.5-1.9
	c-13.2-16.3-33.4-24.6-53.8-26.9C211.3,148.8,189.3,158.3,172,175z M159.9,322.5c-0.8,0.8-1.5,1.5-2.3,2.3c-0.9,0.9-1.7,1.7-2.6,2.6
	c-0.9,0.9-1.8,1.9-2.8,2.9c-1,1-1.9,1.9-2.9,2.9c-2.5,2.5-5,5.1-7.5,7.7c-2.6,2.6-5.1,5.2-7.7,7.8c-5,5.1-10.1,10.2-15.1,15.3
	c2,4.5,5.2,6.5,9.1,9.2c0.7,0.5,1.4,1,2.2,1.5c40.1,26.6,87.1,36.9,134.5,27.8c28.3-5.9,53.7-18.3,76.2-36.5
	c-1.5-3.4-3.4-5.6-5.9-8.2c-0.8-0.8-1.6-1.6-2.4-2.5c-0.9-0.9-1.7-1.8-2.6-2.7c-0.9-0.9-1.8-1.8-2.7-2.7c-1.9-1.9-3.8-3.8-5.7-5.7
	c-2.4-2.4-4.9-4.9-7.3-7.4c-2.3-2.4-4.6-4.7-7-7c-0.9-0.9-1.7-1.8-2.6-2.7c-0.8-0.8-1.6-1.6-2.5-2.4c-0.7-0.7-1.4-1.4-2.2-2.2
	c-1.9-1.6-1.9-1.6-4.1-1.2c-2.4,1-4.5,2.4-6.6,3.8c-9.2,6-18.8,9.8-29.3,13.1c-1.2,0.4-2.3,0.7-3.5,1.1c-18.7,4.7-41.1,3.8-59.5-2.1
	c-0.7-0.2-1.4-0.4-2-0.6c-9.4-3-17.6-7.2-25.8-12.5C164.5,320.8,164.5,320.8,159.9,322.5z"/>
</svg>
