<svg width="28" height="32" viewBox="0 0 28 32" fill="none" xmlns="http://www.w3.org/2000/svg">
<path d="M23.9445 16.0003C21.4495 18.8133 17.8238 20.5837 13.7883 20.5837C9.7528 20.5837 6.12705 18.8133 3.63208 16.0003C6.12705 13.1873 9.7528 11.417 13.7883 11.417C17.8238 11.417 21.4495 13.1873 23.9445 16.0003Z" fill="white"/>
<path fill-rule="evenodd" clip-rule="evenodd" d="M0.162476 25.167C0.162476 17.5731 6.26293 11.417 13.7882 11.417C9.75273 11.417 6.12701 13.1873 3.63204 16.0003C6.12701 18.8133 9.75276 20.5837 13.7882 20.5837C17.8237 20.5837 21.4495 18.8133 23.9444 16.0003C26.102 18.433 27.414 21.6454 27.414 25.167V30.3614C27.414 31.0364 26.8717 31.5837 26.2028 31.5837H1.37365C0.704738 31.5837 0.162476 31.0364 0.162476 30.3614V25.167ZM23.9444 16.0003C23.9444 16.0003 23.9444 16.0003 23.9444 16.0003V16.0003Z" fill="#7CD4FD"/>
<path fill-rule="evenodd" clip-rule="evenodd" d="M8.67737 19.5837C6.73179 18.7887 5.00957 17.5534 3.63204 16.0003C6.12701 13.1873 9.75276 11.417 13.7882 11.417C17.8237 11.417 21.4495 13.1873 23.9444 16.0003C23.9444 16.0003 23.9444 16.0003 23.9444 16.0003C26.102 13.5677 27.414 10.3553 27.414 6.83366V1.63922C27.414 0.964203 26.8717 0.416994 26.2028 0.416994L1.37365 0.416992C0.704739 0.416992 0.162476 0.9642 0.162476 1.63921L0.162476 6.83366C0.162475 12.6037 3.68445 17.5436 8.67737 19.5837Z" fill="#0BA5EC"/>
</svg>
