<?xml version="1.0" encoding="utf-8"?>
<!-- Generator: Adobe Illustrator 24.3.0, SVG Export Plug-In . SVG Version: 6.00 Build 0)  -->
<svg version="1.1" id="Layer_1" xmlns="http://www.w3.org/2000/svg" xmlns:xlink="http://www.w3.org/1999/xlink" x="0px" y="0px"
	 width="24" height="24" viewBox="0 0 24 24" style="enable-background:new 0 0 24 24;" xml:space="preserve">
<style type="text/css">
	.st0{fill:#EDEEEF;}
	.st1{fill:none;stroke:#EDEEEF;stroke-width:2;stroke-linecap:round;stroke-linejoin:round;}
</style>
<g>
	<path class="st0" d="M12,2C6.5,2,2,6.5,2,12c0,5.5,4.5,10,10,10s10-4.5,10-10C22,6.5,17.5,2,12,2z M11.3,17.6C9.5,18.8,8,18,8,15.8
		V8.2c0-2.2,1.5-3,3.3-1.8l5.5,3.5c1.8,1.2,1.8,3.1,0,4.3L11.3,17.6z"/>
	<path class="st1" d="M12,2C6.5,2,2,6.5,2,12c0,5.5,4.5,10,10,10s10-4.5,10-10C22,6.5,17.5,2,12,2z M11.3,17.6C9.5,18.8,8,18,8,15.8
		V8.2c0-2.2,1.5-3,3.3-1.8l5.5,3.5c1.8,1.2,1.8,3.1,0,4.3L11.3,17.6z"/>
</g>
</svg>
